<svg xmlns="http://www.w3.org/2000/svg" width="60.501" height="60.501" viewBox="0 0 60.501 60.501"><defs><style>.a{fill:#eeedfc;}.b{fill:#ff761a;}.c{fill:none;stroke:#ff761a;stroke-linecap:round;stroke-width:2px;}</style></defs><g transform="translate(-28.34 -23.191)"><circle class="a" cx="30.25" cy="30.25" r="30.25" transform="translate(28.34 23.191)"/><g transform="translate(45.09 38.816)"><path class="b" d="M24.935,28.367H4.25A3.253,3.253,0,0,1,1,25.117V3.25A3.253,3.253,0,0,1,4.25,0h18.32a.887.887,0,0,1,.886.886V4.728h1.477a.887.887,0,0,1,.886.886V27.481A.887.887,0,0,1,24.935,28.367ZM2.773,6.145V25.117A1.48,1.48,0,0,0,4.25,26.594h19.8V6.5H4.25a3.219,3.219,0,0,1-1.477-.356ZM4.25,1.773a1.477,1.477,0,0,0,0,2.955H21.684V1.773Z"/><line class="c" x2="14" transform="translate(6.41 11.684)"/><line class="c" x2="14" transform="translate(6.41 16.684)"/><line class="c" x2="14" transform="translate(6.41 21.684)"/></g></g></svg>