<svg xmlns="http://www.w3.org/2000/svg" width="24" height="24" viewBox="0 0 24 24"><defs><style>.a{fill:none;}.b{fill:#707071;}</style></defs><rect class="a" width="24" height="24"/><g transform="translate(3 2)"><g transform="translate(0)"><path class="b" d="M32.805,0a.684.684,0,0,0-.684.684v2.5a8.879,8.879,0,0,0-15.054,6.4.684.684,0,1,0,1.369,0A7.527,7.527,0,0,1,31.515,4.5L28.483,5.51a.685.685,0,1,0,.432,1.3l4.106-1.369a.684.684,0,0,0,.468-.651V.684A.684.684,0,0,0,32.805,0Z" transform="translate(-17.067)"/></g><g transform="translate(1.369 8.896)"><path class="b" d="M66.937,221.867a.684.684,0,0,0-.684.684,7.527,7.527,0,0,1-13.08,5.081l3.031-1.011a.685.685,0,0,0-.432-1.3l-4.106,1.369a.684.684,0,0,0-.468.651v4.106a.684.684,0,0,0,1.369,0v-2.5a8.879,8.879,0,0,0,15.054-6.4A.684.684,0,0,0,66.937,221.867Z" transform="translate(-51.198 -221.867)"/></g></g></svg>